# xmcd
#
# Track frame offsets: 
#        183
#        14490
#        26158
#        39790
#        52698
#        67075
#        81538
#        97115
#        110565
#        124180
#        137533
#        151128
#        162798
#        176820
#        191370
#        205433
#        216748
#        231193
#
# Disc length: 3259 seconds
#
# Revision: 2
# Processed by: cddbd v1.5.2PL0 Copyright (c) Steve Scherf et al.
# Submitted via: ExactAudioCopy v0.99pb5
#
DISCID=020cb912
DTITLE=John Lee Hooker - Original Folk Blues...Plus Additional Tracks
DYEAR=1994
DGENRE=Blues
TTITLE0=Boogie Chillen
TTITLE1=Queen Bee
TTITLE2=Crawlin' King Snake
TTITLE3=Weeping Willow Boogie
TTITLE4=Whistlin' And Moanin' Blues
TTITLE5=Sally Mae
TTITLE6=I Need Love So Bad
TTITLE7=Let's Talk It Over
TTITLE8=The Syndicator
TTITLE9=Let Your Daddy Ride (alt)
TTITLE10=Drifting From Door To Door
TTITLE11=Baby I'm Gonna Miss You
TTITLE12=Cold Chills
TTITLE13=Cool Little Car
TTITLE14=I Wonder Little Darling
TTITLE15=Jump Me One More Time
TTITLE16=Lookin' For A Woman
TTITLE17=Ride 'Til I Die
EXTD=
EXTT0=
EXTT1=
EXTT2=
EXTT3=
EXTT4=
EXTT5=
EXTT6=
EXTT7=
EXTT8=
EXTT9=
EXTT10=
EXTT11=
EXTT12=
EXTT13=
EXTT14=
EXTT15=
EXTT16=
EXTT17=
PLAYORDER=
